<svg width="4403" height="2044" xmlns="http://www.w3.org/2000/svg" xmlns:xlink="http://www.w3.org/1999/xlink" overflow="hidden"><defs><clipPath id="clip0"><rect x="131" y="217" width="4403" height="2044"/></clipPath></defs><g clip-path="url(#clip0)" transform="translate(-131 -217)"><path d="M1528 2080 1214.21 2080 1193.81 2059.6 1193.81 2051.43 1185.67 2051.43 1173.44 2022.87 1144.92 1977.98 1128.61 1957.57 1116.39 1929.01 1108.24 1924.93 1091.95 1892.28 1075.63 1880.03 1063.41 1851.47 1034.89 1806.58 1018.58 1782.09 1002.28 1753.52 981.899 1729.05 965.606 1696.39 949.293 1680.06 933 1647.42 933 1639.26 941.152 1639.26 945.221 1618.86 953.372 1598.45 973.748 1578.05 1002.28 1524.99 1030.8 1492.35 1047.11 1459.69 1071.55 1427.05 1087.87 1398.48 1116.39 1361.76 1144.92 1304.62 1165.3 1284.21 1193.81 1223 1519.85 1223 1511.71 1243.4 1487.26 1280.13 1462.8 1312.78 1434.27 1369.91 1413.9 1394.4 1405.74 1414.81 1377.22 1451.53 1360.91 1484.18 1344.61 1504.58 1332.39 1537.23 1291.64 1590.29 1267.18 1631.09 1267.18 1663.75 1299.78 1716.8 1307.93 1737.2 1328.31 1757.61 1344.61 1790.25 1364.99 1818.81 1377.22 1839.22 1397.59 1867.79 1409.82 1888.19 1409.82 1896.36 1426.12 1904.52 1454.65 1961.65 1479.1 1998.38 1495.4 2014.71 1511.71 2043.27 1511.71 2055.51 1528 2063.68 1528 2080Z" fill="#3A3F78" fill-rule="evenodd"/><path d="M2871.39 1445 2891.78 1465.42 2904.03 1477.67 2920.35 1506.27 2936.66 1530.79 2940.74 1543.04 2961.14 1563.48 2981.54 1592.08 2993.79 1612.5 3014.18 1645.18 3026.42 1665.62 3046.82 1698.29 3046.82 1710.54 3059.06 1714.63 3087.62 1755.49 3103.93 1780.01 3124.33 1812.68 3140.66 1841.28 3140.66 1853.54 3148.81 1853.54 3148.81 1869.88 3165.13 1878.05 3165.13 1890.3 3173.3 1890.3 3185.54 1910.74 3201.86 1927.09 3210.01 1943.41 3210.01 1955.69 3218.18 1955.69 3226.33 1972.01 3226.33 1984.28 3234.49 1984.28 3246.73 2004.7 3263.05 2021.04 3275.29 2041.48 3287.53 2057.82 3287.53 2070.07 3295.68 2070.07 3307.93 2090.49 3312.01 2106.84 3320.17 2106.84 3320.17 2123.18 3328.32 2123.18 3336.49 2135.44 3336.49 2151.77 3352.81 2159.95 3352.81 2172.21 3360.96 2172.21 3369.12 2188.56 3369.12 2200.81 3389.52 2208.97 3405.85 2237.57 3414 2245.75 3414 2258 2341 2258 2345.09 2241.65 2357.33 2237.57 2357.33 2221.23 2365.49 2221.23 2369.57 2204.88 2389.97 2184.46 2394.05 2172.21 2402.21 2172.21 2406.28 2155.87 2418.52 2151.77 2418.52 2135.44 2426.69 2135.44 2430.76 2119.09 2443.01 2094.58 2451.16 2094.58 2455.25 2074.15 2471.57 2053.73 2479.72 2053.73 2487.89 2029.21 2504.2 2012.88 2904.03 2008.78 2904.03 1996.53 2904.03 1984.28 2891.78 1984.28 2883.62 1967.94 2875.47 1963.85 2846.91 1906.65 2834.67 1898.48 2818.34 1865.8 2818.34 1853.54 2810.19 1853.54 2797.95 1833.11 2773.46 1796.35 2748.99 1763.66 2740.84 1759.58 2720.44 1718.72 2708.2 1702.38 2708.2 1681.94 2728.59 1645.18 2744.91 1628.84 2757.15 1608.41 2781.64 1571.65 2793.87 1567.55 2802.03 1547.14 2814.28 1534.88 2826.51 1506.27 2855.07 1469.51 2867.31 1449.07 2871.39 1445Z" fill="#3A3F78" fill-rule="evenodd"/><path d="M126.155 0 133.663 3.20978 130.455 10.7135 145.47 17.1326 142.262 24.6363 153.524 29.451 156.226 43.9033 177.694 66.3865 172.884 77.6391 186.294 87.8138 195.953 96.3767 192.749 103.871 206.16 114.046 205.103 126.902 220.121 133.322 216.917 140.816 230.327 150.991 239.986 159.554 242.683 174.012 264.15 196.498 260.947 203.993 274.357 214.167 296.372 245.762 291.562 257.012 304.979 267.17 314.636 275.74 311.428 283.243 326.443 289.663 323.239 297.157 336.649 307.334 360.816 344.28 382.833 375.861 410.753 414.412 410.248 436.369 427.411 448.147 455.331 486.698 458.031 501.149 475.746 522.028 472.534 529.541 485.951 539.699 502.059 564.336 516.026 583.601 532.135 608.238 563.812 648.383 579.918 673.018 608.383 720.677 622.346 739.951 640.609 769.931 654.567 789.215 684.632 833.105 707.204 873.798 727.066 900.04 739.423 923.061 768.947 957.867 785.067 982.487 813.523 1030.14 827.482 1049.41 843.594 1074.05 867.222 1101.89 888.179 1146.33 903.74 1161.86 932.212 1209.51 955.821 1237.34 968.18 1260.37 988.059 1286.61 1010.6 1327.31 1036.37 1360.49 1053.04 1394.23 1075.05 1425.81 1097.07 1457.42 1126.59 1492.2 1125.54 1505.06 1137.35 1518.99 1167.42 1562.89 1181.38 1582.17 1203.4 1613.76 1224.87 1636.23 1227.56 1650.69 1249.03 1673.17 1248.51 1695.13 1267.84 1712.26 1289.86 1743.85 1307.57 1764.73 1310.27 1779.19 1330.13 1805.43 1326.93 1812.93 1340.34 1823.09 1360.2 1849.34 1384.38 1886.27 1394.03 1894.84 1390.83 1902.34 1404.24 1912.52 1413.9 1921.09 1416.59 1935.54 1438.05 1958.02 1446.66 1979.45 1476.19 2014.24 1472.98 2021.75 1480.49 2024.95 1353.84 2321.2 1338.81 2314.78 1342.02 2307.28 1330.76 2302.47 1333.97 2294.97 1320.56 2284.8 1310.9 2276.23 1315.7 2264.99 1302.29 2254.81 1303.34 2241.96 1288.34 2235.54 1291.54 2228.05 1278.13 2217.87 1279.19 2205.02 1265.78 2194.85 1256.12 2186.28 1259.32 2178.79 1245.91 2168.6 1231.94 2149.34 1235.15 2141.84 1221.74 2131.67 1190.06 2091.51 1183.62 2075.45 1163.74 2049.22 1147.64 2024.58 1137.98 2016.02 1141.18 2008.52 1127.78 1998.35 1115.42 1975.34 1083.74 1935.17 1072.99 1908.4 1041.31 1868.25 1028.95 1845.22 1003.19 1812.03 996.73 1795.96 976.878 1769.72 960.762 1745.1 954.315 1729.03 924.786 1694.24 918.334 1678.17 898.474 1651.94 867.839 1598.93 853.887 1579.64 837.777 1555.03 825.42 1532.01 811.463 1512.73 781.381 1468.83 767.426 1449.55 749.162 1419.56 727.702 1397.08 713.187 1368.71 693.326 1342.47 662.71 1289.45 648.751 1270.18 609.016 1217.72 592.362 1183.97 566.593 1150.78 542.418 1113.84 502.694 1061.37 497.847 1041.55 468.324 1006.76 435.553 948.397 397.973 901.284 381.861 876.656 351.792 832.747 337.828 813.479 326.024 799.547 329.228 792.052 315.818 781.878 314.112 779.524 314.112 772.401 305.952 756.074 297.791 756.074 297.791 739.748 281.48 723.425 265.152 690.772 256.998 690.772 256.998 678.527 236.604 654.041 234.445 650.26 234.712 649.635 233.886 649.282 220.293 625.47 212.122 621.388 211.875 620.893 212.151 608.942 202.091 601.311 195.811 588.739 187.64 584.657 182.517 574.401 184.231 570.392 179.505 568.372 171.329 552.004 163.179 552.004 163.179 539.759 155.008 523.433 142.784 519.355 134.613 503.028 126.463 503.028 126.463 490.784 118.302 474.457 110.131 474.457 110.131 458.131 101.981 454.049 93.8201 437.727 85.6697 437.726 85.6697 425.481 69.3487 392.828 61.1882 392.828 61.1882 380.584 53.0274 364.261 44.8773 364.261 44.8773 352.016 24.4721 331.608 16.3113 315.283 8.16122 315.283 8.16122 298.956 0 298.956 0.000360892 295.092 126.155 0Z" fill="#3A3F78" fill-rule="evenodd" transform="matrix(-0.383777 0.923426 0.923426 0.383777 2909.36 108.528)"/><path d="M579.225 0 1652 0 1652 8.16399 1643.84 8.16399 1643.84 24.4916 1635.68 24.4916 1635.68 36.7378 1623.45 44.9014 1611.21 73.4759 1598.97 73.4759 1594.89 89.8035 1590.81 102.05 1582.66 102.05 1578.57 118.378 1566.33 122.459 1566.33 138.789 1558.18 138.789 1554.1 155.116 1550.02 167.363 1537.79 175.525 1525.55 204.099 1517.39 204.099 1513.31 220.426 1492.91 253.084 1480.67 253.084 1476.61 269.412 1472.52 281.658 1464.36 281.658 1464.36 297.986 1456.21 297.986 1452.12 314.313 1427.64 351.052 1407.26 383.707 1382.78 424.528 1362.39 432.693 1358.31 453.102 1333.83 493.922 1321.6 502.084 1309.37 526.577 1301.19 526.577 1297.13 542.904 1280.8 567.397 1268.58 587.809 1252.25 612.302 1227.79 657.203 1211.46 681.693 1178.83 726.594 1166.59 747.006 1146.2 775.58 1133.95 795.992 1105.41 840.883 1076.86 877.629 1060.54 906.203 1044.23 926.611 1023.82 967.435 1007.52 991.932 974.884 1036.82 962.648 1057.23 946.324 1081.73 930.011 1114.39 897.384 1151.13 889.222 1171.53 856.595 1216.44 840.281 1249.08 823.958 1269.5 807.644 1298.09 779.081 1334.81 758.693 1371.54 734.218 1400.13 713.827 1432.77 693.419 1465.44 673.039 1506.25 660.803 1510.34 652.63 1526.67 624.078 1571.57 611.842 1591.98 591.451 1624.64 579.225 1653.21 566.985 1661.37 554.75 1689.94 534.349 1698.1 526.197 1722.6 505.799 1755.26 493.56 1779.75 481.324 1787.92 465 1816.49 456.848 1816.49 452.771 1832.81 436.447 1861.39 411.982 1898.13 407.898 1910.38 399.746 1910.38 395.659 1926.71 391.574 1938.96 379.345 1947.12 367.109 1975.68 350.785 1992.02 330.394 2032.84 322.233 2032.84 322.233 2041 0 2041 0 2024.66 8.15128 2024.66 8.15128 2012.43 16.3134 2012.43 20.3874 1996.1 24.4751 1983.85 36.7008 1983.85 40.7885 1967.52 53.0247 1963.43 53.0247 1947.12 61.176 1947.12 65.2641 1930.79 77.493 1926.71 81.5775 1910.38 85.6619 1898.13 93.8132 1898.13 97.9013 1881.8 110.127 1861.39 118.289 1861.39 122.366 1845.06 146.842 1800.16 159.078 1787.92 175.391 1759.34 191.715 1734.85 195.792 1722.6 203.944 1722.6 208.028 1706.28 224.331 1685.87 248.817 1640.96 269.208 1620.55 293.683 1575.64 309.996 1555.23 330.394 1518.5 342.634 1506.25 358.958 1477.69 375.271 1453.19 387.507 1440.95 407.898 1400.13 420.134 1387.88 436.447 1359.31 473.162 1310.31 485.408 1289.91 501.711 1265.42 518.025 1245.01 530.264 1224.6 558.814 1179.69 571.053 1159.29 591.451 1130.71 603.69 1102.14 624.078 1077.65 640.401 1049.07 677.116 1000.09 689.352 979.682 721.979 922.53 746.465 893.957 766.855 857.221 791.321 820.478 823.958 763.333 840.281 751.087 860.669 710.27 901.458 657.203 930.011 604.137 946.324 579.644 974.884 534.742 987.113 514.33 995.285 498.003 1003.44 498.003 1007.52 481.675 1031.99 440.855 1044.23 432.693 1072.77 375.545 1085.01 367.38 1089.1 355.134 1097.25 355.134 1097.25 338.806 1105.41 338.806 1105.41 326.56 1125.8 318.398 1129.89 302.067 1142.12 277.577 1150.28 277.577 1150.28 253.084 742.38 253.084 721.979 228.592 713.827 224.51 705.666 208.183 705.666 195.937 689.352 187.771 681.19 171.444 681.19 159.197 673.039 159.197 660.803 138.789 656.715 122.459 648.563 122.459 640.401 106.132 640.401 93.8857 632.239 93.8857 611.842 73.4759 603.69 57.1475 603.69 44.9014 595.539 44.9014 595.539 28.5738 587.377 28.5738 587.377 16.328 579.225 16.328 579.225 0Z" fill="#3A3F78" fill-rule="evenodd" transform="matrix(1 -1.22465e-16 -1.22465e-16 -1 2430 2258)"/><path d="M710.225 217 1783 217 1783 225.164 1774.84 225.164 1774.84 241.492 1766.68 241.492 1766.68 253.738 1754.45 261.901 1742.21 290.476 1729.97 290.476 1725.89 306.803 1721.81 319.05 1713.66 319.05 1709.57 335.378 1697.33 339.459 1697.33 355.789 1689.18 355.789 1685.1 372.116 1681.02 384.362 1668.79 392.525 1656.55 421.098 1648.39 421.098 1644.31 437.426 1623.91 470.084 1611.67 470.084 1607.61 486.412 1603.52 498.658 1595.36 498.658 1595.36 514.986 1587.21 514.986 1583.12 531.313 1558.64 568.052 1538.26 600.707 1513.78 641.528 1493.39 649.693 1489.31 670.102 1464.83 710.922 1452.6 719.084 1440.37 743.577 1432.19 743.577 1428.13 759.904 1411.8 784.397 1399.58 804.809 1383.25 829.302 1358.79 874.203 1342.46 898.693 1309.83 943.594 1297.59 964.006 1277.2 992.58 1264.95 1012.99 1236.41 1057.88 1207.86 1094.63 1191.54 1123.2 1175.23 1143.61 1154.82 1184.44 1138.52 1208.93 1105.88 1253.82 1093.65 1274.23 1077.32 1298.73 1061.01 1331.39 1028.38 1368.12 1020.22 1388.53 987.595 1433.44 971.281 1466.08 954.958 1486.5 938.644 1515.09 910.081 1551.81 889.693 1588.54 865.218 1617.13 844.827 1649.77 824.419 1682.44 804.039 1723.25 791.803 1727.34 783.63 1743.67 755.078 1788.57 742.842 1808.98 722.451 1841.64 710.225 1870.21 697.985 1878.37 685.75 1906.94 665.349 1915.1 657.197 1939.6 636.799 1972.26 624.56 1996.75 612.324 2004.92 596 2033.49 587.848 2033.49 583.771 2049.81 567.447 2078.39 542.982 2115.13 538.898 2127.38 530.746 2127.38 526.659 2143.71 522.574 2155.96 510.345 2164.12 498.109 2192.68 481.785 2209.02 461.394 2249.84 453.233 2249.84 453.233 2258 131 2258 131 2241.66 139.151 2241.66 139.151 2229.43 147.313 2229.43 151.387 2213.1 155.475 2200.85 167.701 2200.85 171.789 2184.52 184.025 2180.43 184.025 2164.12 192.176 2164.12 196.264 2147.79 208.493 2143.71 212.577 2127.38 216.662 2115.13 224.813 2115.13 228.901 2098.8 241.127 2078.39 249.289 2078.39 253.366 2062.06 277.841 2017.16 290.078 2004.92 306.391 1976.34 322.715 1951.85 326.792 1939.6 334.944 1939.6 339.028 1923.28 355.331 1902.87 379.817 1857.96 400.208 1837.55 424.683 1792.64 440.996 1772.23 461.394 1735.5 473.634 1723.25 489.958 1694.69 506.271 1670.19 518.507 1657.95 538.898 1617.13 551.134 1604.88 567.447 1576.31 604.162 1527.31 616.408 1506.91 632.711 1482.42 649.025 1462.01 661.264 1441.6 689.814 1396.69 702.053 1376.29 722.451 1347.71 734.69 1319.14 755.078 1294.65 771.401 1266.07 808.116 1217.09 820.352 1196.68 852.979 1139.53 877.465 1110.96 897.855 1074.22 922.321 1037.48 954.958 980.333 971.281 968.087 991.669 927.27 1032.46 874.203 1061.01 821.137 1077.32 796.644 1105.88 751.742 1118.11 731.33 1126.29 715.003 1134.44 715.003 1138.52 698.675 1162.99 657.855 1175.23 649.693 1203.77 592.545 1216.01 584.38 1220.1 572.133 1228.25 572.133 1228.25 555.806 1236.41 555.806 1236.41 543.56 1256.8 535.397 1260.89 519.067 1273.12 494.577 1281.28 494.577 1281.28 470.084 873.38 470.084 852.979 445.591 844.827 441.51 836.666 425.183 836.666 412.937 820.352 404.771 812.19 388.444 812.19 376.197 804.039 376.197 791.803 355.789 787.715 339.459 779.563 339.459 771.401 323.132 771.401 310.886 763.239 310.886 742.842 290.476 734.69 274.147 734.69 261.901 726.539 261.901 726.539 245.574 718.376 245.574 718.376 233.328 710.225 233.328 710.225 217Z" fill="#3A3F78" fill-rule="evenodd"/><path d="M1154.89 1136.39 1329.82 875.503 1354.73 867.652 1372.85 869.957 1383.01 876.776 1398.88 867.775 1409.05 874.593 1413.6 867.807 1431.7 870.129 1441.87 876.948 1446.41 870.17 1459.97 879.262 1464.51 872.493 1482.61 874.806 1510.93 869.223 1521.1 876.042 1525.64 869.273 1543.74 871.585 1553.91 878.405 1558.45 871.627 1594.66 876.255 1604.84 883.075 1609.37 876.305 1627.48 878.617 1635.41 874.121 1648.97 883.213 1653.52 876.426 1671.62 878.741 1681.79 885.56 1686.33 878.79 1704.44 881.096 1714.64 873.214 1732.75 875.52 1742.92 882.339 1747.46 875.57 1783.66 880.207 1791.6 875.693 1827.8 880.328 1835.74 875.815 1868.56 878.179 1900.25 874.876 1910.42 881.695 1914.96 874.923 1951.18 879.545 1973.82 875.088 1987.38 884.18 1991.92 877.402 2010.03 879.717 2030.37 893.355 2039.35 923.931 2058.5 961.33 2068.6 997.573 2077.62 1013.44 2097.88 1056.5 2109.13 1083.69 2128.28 1121.09 2132.76 1143.73 2122.55 1151.62 2093.12 1151.54 2067.09 1153.73 2045.59 1149.15 1990.13 1151.24 1966.37 1150.04 1943.72 1154.5 1907.52 1149.87 1900.74 1145.32 1884.86 1154.34 1866.76 1152.02 1856.59 1145.2 1852.05 1151.98 1815.84 1147.35 1789.81 1149.53 1771.7 1147.23 1761.53 1140.41 1756.99 1147.18 1733.22 1145.98 1717.39 1140.27 1712.84 1147.05 1684.54 1152.63 1666.44 1150.31 1656.27 1143.49 1651.72 1150.27 1615.52 1145.64 1583.82 1148.94 1577.04 1144.4 1572.49 1151.17 1554.39 1148.85 1544.22 1142.03 1539.67 1148.82 1526.11 1139.73 1513.64 1151 1500.08 1141.91 1495.53 1148.69 1444.62 1144.01 1436.68 1148.52 1400.47 1143.89 1390.3 1137.07 1383.49 1147.23 1365.39 1144.92 1357.45 1149.42 1339.35 1147.1 1329.18 1140.28 1324.63 1147.07 1311.07 1137.98 1295.21 1146.98 1285.04 1140.16 1280.5 1146.93 1262.39 1144.62 1252.22 1137.8 1247.68 1144.58 1234.12 1135.49 1218.25 1144.5 1208.08 1137.68 1203.54 1144.45 1191.1 1141.02 1183.16 1145.53 1172.99 1138.71 1168.45 1145.48 1154.89 1136.39Z" fill="#3A3F78" fill-rule="evenodd"/><path d="M1387.95 1498.73 1561.99 1237.25 1586.88 1229.31 1605 1231.56 1615.19 1238.34 1631.03 1229.29 1641.22 1236.07 1645.75 1229.27 1663.85 1231.53 1674.04 1238.31 1678.57 1231.52 1692.16 1240.57 1696.67 1233.78 1714.79 1236.03 1743.08 1230.35 1753.27 1237.14 1757.79 1230.35 1775.9 1232.6 1786.09 1239.39 1790.61 1232.59 1826.84 1237.1 1837.03 1243.88 1841.55 1237.1 1859.66 1239.35 1867.57 1234.83 1881.16 1243.87 1885.69 1237.07 1903.8 1239.32 1914 1246.11 1918.51 1239.32 1936.63 1241.57 1946.8 1233.65 1964.92 1235.89 1975.11 1242.68 1979.63 1235.89 2015.85 1240.41 2023.77 1235.87 2059.99 1240.38 2067.91 1235.84 2100.74 1238.09 2132.42 1234.68 2142.61 1241.46 2147.13 1234.68 2183.36 1239.18 2205.99 1234.64 2219.58 1243.69 2224.1 1236.89 2242.21 1239.15 2262.6 1252.72 2271.68 1283.26 2290.96 1320.59 2301.18 1356.8 2310.25 1372.63 2330.67 1415.63 2342.01 1442.78 2361.29 1480.12 2365.84 1502.74 2355.66 1510.67 2326.23 1510.69 2300.2 1512.96 2278.69 1508.46 2223.24 1510.74 2199.47 1509.62 2176.84 1514.16 2140.62 1509.64 2133.82 1505.12 2117.98 1514.19 2099.88 1511.93 2089.68 1505.15 2085.16 1511.94 2048.94 1507.44 2022.91 1509.71 2004.79 1507.47 1994.6 1500.68 1990.08 1507.47 1966.31 1506.35 1950.47 1500.69 1945.94 1507.49 1917.65 1513.17 1899.54 1510.91 1889.35 1504.12 1884.83 1510.92 1848.61 1506.41 1816.92 1509.82 1810.12 1505.3 1805.6 1512.09 1787.49 1509.83 1777.3 1503.05 1772.77 1509.85 1759.18 1500.8 1746.75 1512.12 1733.16 1503.08 1728.64 1509.87 1677.71 1505.37 1669.79 1509.9 1633.56 1505.39 1623.37 1498.61 1616.59 1508.79 1598.48 1506.54 1590.56 1511.07 1572.45 1508.81 1562.26 1502.03 1557.73 1508.83 1544.14 1499.78 1528.31 1508.84 1518.12 1502.06 1513.6 1508.84 1495.48 1506.6 1485.29 1499.81 1480.77 1506.61 1467.18 1497.56 1451.34 1506.63 1441.14 1499.84 1436.63 1506.63 1424.18 1503.23 1416.25 1507.77 1406.06 1500.99 1401.54 1507.77 1387.95 1498.73Z" fill="#3A3F78" fill-rule="evenodd"/><path d="M920.587 282.797 916.691 275.106 913.546 258.087 899.249 228.441 888.333 201.11 880.554 190.804 885.176 184.091 874.05 171.473 866.481 146.472 843.367 100.834 838.116 72.4668 814.996 26.8385 808.805 6.3647 795.813 5.78222 777.685 3.58691 773.188 10.3847 757.316 4.78038 754.412 4.65082 748.462 8.56831 730.338 10.7322 725.85 3.9164 712.215 12.8958 689.612 8.25108 653.361 12.5728 648.876 5.76309 638.65 12.4973 606.983 8.93173 602.638 9.20781 602.263 9.77549 601.513 9.27963 574.15 11.0231 566.247 6.44373 565.698 6.50906 555.868 13.3133 543.962 9.10892 530.008 10.7777 522.106 6.19869 510.723 7.5607 508.317 11.1978 504.03 8.36115 485.864 10.5348 481.382 3.72802 471.155 10.4626 453.026 12.6179 442.897 4.6519 424.767 6.80715 420.285 0 410.059 6.73461 391.935 8.89852 387.441 2.07441 373.805 11.0531 365.914 6.49173 347.794 8.65312 343.311 1.84633 333.084 8.58094 296.837 12.9088 292.349 6.09295 282.122 12.8276 264.001 14.99 259.519 8.18287 249.293 14.9171 221.026 9.09954 202.903 11.262 198.421 4.45558 184.785 13.4349 180.296 6.61913 177.07 8.74442 0 276.402 6.81004 280.907 11.3125 274.101 24.9323 283.111 29.4347 276.305 39.6498 283.063 53.2053 277.371 83.7906 282.935 90.5428 272.729 106.416 278.333 118.88 281.69 123.376 274.893 139.25 280.497 149.406 272.543 163.027 281.555 167.524 274.757 183.397 280.361 195.861 283.719 209.419 278.019 240.006 283.581 244.502 276.783 260.376 282.387 298.871 283.397 305.622 273.193 321.485 278.811 333.953 282.164 338.456 275.357 352.075 284.367 356.571 277.569 372.446 283.171 416.594 283.035 455.079 284.054 502.631 286.17 520.691 273.672 539.968 281.528 587.52 283.644 601.074 277.95 628.255 281.263 632.763 274.448 648.626 280.067 678.061 279.969 701.832 281.038 731.268 280.943 782.218 285.319 811.651 285.221 867.109 282.783 890.886 283.844 920.587 282.797Z" fill="#3A3F78" fill-rule="evenodd" transform="matrix(0.567081 -0.823662 -0.823662 -0.567081 2054.73 1300.74)"/><path d="M920.587 282.797 916.691 275.106 913.546 258.087 899.249 228.441 888.333 201.11 880.554 190.804 885.176 184.091 874.05 171.473 866.481 146.472 843.367 100.834 838.116 72.4668 814.996 26.8385 808.805 6.3647 795.813 5.78222 777.685 3.58691 773.188 10.3847 757.316 4.78038 754.412 4.65082 748.462 8.56831 730.338 10.7322 725.85 3.9164 712.215 12.8958 689.612 8.25108 653.361 12.5728 648.876 5.76309 638.65 12.4973 606.983 8.93173 602.638 9.20781 602.263 9.77549 601.513 9.27963 574.15 11.0231 566.247 6.44373 565.698 6.50906 555.868 13.3133 543.962 9.10892 530.008 10.7777 522.106 6.19869 510.723 7.5607 508.317 11.1978 504.03 8.36115 485.864 10.5348 481.382 3.72802 471.155 10.4626 453.026 12.6179 442.897 4.6519 424.767 6.80715 420.285 0 410.059 6.73461 391.935 8.89852 387.441 2.07441 373.805 11.0531 365.914 6.49173 347.794 8.65312 343.311 1.84633 333.084 8.58094 296.837 12.9088 292.349 6.09295 282.122 12.8276 264.001 14.99 259.519 8.18287 249.293 14.9171 221.026 9.09954 202.903 11.262 198.421 4.45558 184.785 13.4349 180.296 6.61913 177.07 8.74442 0 276.402 6.81004 280.907 11.3125 274.101 24.9323 283.111 29.4347 276.305 39.6498 283.063 53.2053 277.371 83.7906 282.935 90.5428 272.729 106.416 278.333 118.88 281.69 123.376 274.893 139.25 280.497 149.406 272.543 163.027 281.555 167.524 274.757 183.397 280.361 195.861 283.719 209.419 278.019 240.006 283.581 244.502 276.783 260.376 282.387 298.871 283.397 305.622 273.193 321.485 278.811 333.953 282.164 338.456 275.357 352.075 284.367 356.571 277.569 372.446 283.171 416.594 283.035 455.079 284.054 502.631 286.17 520.691 273.672 539.968 281.528 587.52 283.644 601.074 277.95 628.255 281.263 632.763 274.448 648.626 280.067 678.061 279.969 701.832 281.038 731.268 280.943 782.218 285.319 811.651 285.221 867.109 282.783 890.886 283.844 920.587 282.797Z" fill="#3A3F78" fill-rule="evenodd" transform="matrix(0.567081 -0.823662 -0.823662 -0.567081 2356.02 2071.37)"/><path d="M920.587 282.797 916.691 275.106 913.546 258.087 899.249 228.441 888.333 201.11 880.554 190.804 885.176 184.091 874.05 171.473 866.481 146.472 843.367 100.834 838.116 72.4668 814.996 26.8385 808.805 6.3647 795.813 5.78222 777.685 3.58691 773.188 10.3847 757.316 4.78038 754.412 4.65082 748.462 8.56831 730.338 10.7322 725.85 3.9164 712.215 12.8958 689.612 8.25108 653.361 12.5728 648.876 5.76309 638.65 12.4973 606.983 8.93173 602.638 9.20781 602.263 9.77549 601.513 9.27963 574.15 11.0231 566.247 6.44373 565.698 6.50906 555.868 13.3133 543.962 9.10892 530.008 10.7777 522.106 6.19869 510.723 7.5607 508.317 11.1978 504.03 8.36115 485.864 10.5348 481.382 3.72802 471.155 10.4626 453.026 12.6179 442.897 4.6519 424.767 6.80715 420.285 0 410.059 6.73461 391.935 8.89852 387.441 2.07441 373.805 11.0531 365.914 6.49173 347.794 8.65312 343.311 1.84633 333.084 8.58094 296.837 12.9088 292.349 6.09295 282.122 12.8276 264.001 14.99 259.519 8.18287 249.293 14.9171 221.026 9.09954 202.903 11.262 198.421 4.45558 184.785 13.4349 180.296 6.61913 177.07 8.74442 0 276.402 6.81004 280.907 11.3125 274.101 24.9323 283.111 29.4347 276.305 39.6498 283.063 53.2053 277.371 83.7906 282.935 90.5428 272.729 106.416 278.333 118.88 281.69 123.376 274.893 139.25 280.497 149.406 272.543 163.027 281.555 167.524 274.757 183.397 280.361 195.861 283.719 209.419 278.019 240.006 283.581 244.502 276.783 260.376 282.387 298.871 283.397 305.622 273.193 321.485 278.811 333.953 282.164 338.456 275.357 352.075 284.367 356.571 277.569 372.446 283.171 416.594 283.035 455.079 284.054 502.631 286.17 520.691 273.672 539.968 281.528 587.52 283.644 601.074 277.95 628.255 281.263 632.763 274.448 648.626 280.067 678.061 279.969 701.832 281.038 731.268 280.943 782.218 285.319 811.651 285.221 867.109 282.783 890.886 283.844 920.587 282.797Z" fill="#3A3F78" fill-rule="evenodd" transform="matrix(0.567081 -0.823662 -0.823662 -0.567081 2123.08 2411.42)"/></g></svg>