<svg width="2471" height="2475" xmlns="http://www.w3.org/2000/svg" xmlns:xlink="http://www.w3.org/1999/xlink" overflow="hidden"><defs><clipPath id="clip0"><rect x="964" y="0" width="2471" height="2475"/></clipPath></defs><g clip-path="url(#clip0)" transform="translate(-964 0)"><path d="M2478.36 1445.54 2474.28 1449.61 2462.03 1470.04 2433.45 1506.79 2421.2 1535.39 2408.94 1547.64 2400.78 1568.05 2388.53 1572.14 2364.02 1608.89 2351.77 1629.32 2335.44 1645.65 2315.03 1682.4 2315.03 1702.83 2327.28 1719.17 2347.7 1760.01 2355.86 1764.09 2380.35 1796.77 2404.86 1833.52 2417.11 1853.94 2425.27 1853.94 2425.27 1866.19 2441.61 1898.86 2453.86 1907.03 2482.45 1964.21 2490.61 1968.3 2498.77 1984.63 2511.03 1984.63 2511.03 1996.88 2511.03 2009.13 2110.85 2013.22 2094.53 2029.55 2086.35 2054.06 2078.19 2054.06 2061.86 2074.47 2057.77 2094.9 2049.61 2094.9 2037.35 2119.4 2033.27 2135.74 2025.1 2135.74 2025.1 2152.07 2012.85 2156.16 2008.77 2172.5 2000.6 2172.5 1996.52 2184.75 1976.1 2205.16 1972.02 2221.5 1963.85 2221.5 1963.85 2237.84 1951.6 2241.92 1947.51 2258.26 3021.45 2258.26 3021.45 2246.01 3013.29 2237.84 2996.95 2209.25 2976.53 2201.09 2976.53 2188.84 2968.37 2172.5 2960.21 2172.5 2960.21 2160.24 2943.87 2152.07 2943.87 2135.74 2935.7 2123.49 2927.54 2123.49 2927.54 2107.15 2919.37 2107.15 2915.29 2090.81 2903.03 2070.4 2894.87 2070.4 2894.87 2058.15 2882.62 2041.81 2870.37 2021.38 2854.04 2005.05 2841.78 1984.63 2833.62 1984.63 2833.62 1972.37 2825.46 1956.05 2817.28 1956.05 2817.28 1943.78 2809.12 1927.46 2792.79 1911.12 2780.54 1890.69 2772.36 1890.69 2772.36 1878.44 2756.03 1870.27 2756.03 1853.94 2747.87 1853.94 2747.87 1841.68 2731.53 1813.09 2711.11 1780.43 2694.78 1755.92 2666.2 1715.08 2653.95 1710.99 2653.95 1698.74 2633.53 1666.08 2621.28 1645.65 2600.87 1612.98 2588.61 1592.57 2568.2 1563.98 2547.78 1543.55 2543.69 1531.3 2527.37 1506.79 2511.03 1478.2 2498.77 1465.95ZM2902.59 788.398 2874.03 821.059 2857.7 853.719 2825.05 898.629 2812.8 927.207 2792.41 947.621 2776.08 976.199 2759.75 996.613 2735.26 1041.52 2723.03 1053.77 2706.71 1078.27 2690.37 1106.85 2678.13 1119.1 2657.72 1155.83 2641.4 1176.25 2633.24 1196.66 2625.08 1204.82 2612.83 1229.32 2616.92 1241.57 2633.24 1261.99 2653.65 1302.81 2682.21 1335.48 2706.71 1384.47 2723.03 1408.95 2731.19 1429.37 2751.59 1449.78 2763.83 1478.37 2776.08 1486.53 2784.24 1502.86 2808.73 1539.61 2816.89 1539.61 2820.98 1560.02 2841.37 1600.85 2853.62 1604.92 2853.62 1613.09 2886.27 1649.84 3188.28 1649.84 3192.35 1633.5 3184.19 1617.17 3155.63 1580.43 3127.06 1535.52 3114.81 1515.11 3094.41 1486.53 3078.08 1478.37 3078.08 1466.12 3069.92 1445.71 3057.68 1433.46 3053.6 1421.21 3037.27 1413.04 3037.27 1400.79 3029.11 1384.47 3008.7 1355.89 2992.38 1347.72 2992.38 1331.39 2980.14 1306.89 2963.81 1286.48 2943.41 1245.65 2939.32 1229.32 2955.65 1200.75 2963.81 1196.66 2984.22 1155.83 2992.38 1139.51 3000.54 1139.51 3012.79 1123.17 3025.02 1094.6 3053.6 1057.86 3069.92 1029.27 3094.41 992.53 3118.9 951.704 3143.38 906.794 3171.95 870.05 3200.53 825.141 3212.76 788.398ZM1187.08 788.398 1187.08 804.738 1203.41 812.908 1203.41 825.164 1219.76 853.759 1236.09 870.1 1260.6 906.866 1289.19 964.057 1305.53 972.227 1305.53 980.397 1317.79 1000.82 1338.21 1029.42 1350.46 1049.85 1370.89 1078.44 1387.23 1111.12 1407.65 1131.55 1415.82 1151.97 1448.5 1205.07 1448.5 1237.76 1423.98 1278.61 1383.14 1331.72 1370.89 1364.4 1354.55 1384.82 1338.21 1417.51 1309.62 1454.27 1301.44 1474.7 1281.02 1499.21 1252.43 1556.4 1227.92 1589.08 1203.41 1625.85 1195.25 1646.27 1522.03 1646.27 1550.61 1585 1571.04 1564.57 1599.63 1507.37 1628.22 1470.61 1644.57 1442.01 1669.07 1409.34 1685.41 1376.65 1714 1343.97 1742.6 1290.86 1763.02 1270.44 1771.19 1250.01 1775.27 1229.59 1783.44 1229.59 1783.44 1221.42 1767.11 1188.74 1750.76 1172.4 1734.43 1139.71 1714 1115.21 1697.66 1086.61 1681.32 1062.1 1652.73 1017.16 1640.48 988.568 1624.13 976.312 1607.8 943.631 1599.63 939.546 1587.38 910.951 1571.04 890.525 1542.45 845.589 1530.19 816.994 1522.03 816.994 1522.03 808.823 1501.59 788.398ZM1954.67 216.818 1954.67 233.148 1962.83 233.148 1962.83 245.396 1971 245.396 1971 261.726 1979.16 261.726 1979.16 273.974 1987.32 290.305 2007.74 310.718 2015.91 310.718 2015.91 322.966 2024.08 339.296 2032.24 339.296 2036.33 355.627 2048.58 376.04 2056.74 376.04 2056.74 388.288 2064.91 404.618 2081.24 412.784 2081.24 425.031 2089.41 441.362 2097.57 445.444 2117.99 469.94 2526.3 469.94 2526.3 494.437 2518.14 494.437 2505.89 518.932 2501.8 535.263 2481.39 543.427 2481.39 555.675 2473.22 555.675 2473.22 572.006 2465.06 572.006 2460.97 584.254 2448.72 592.419 2420.14 649.576 2407.89 657.741 2383.4 698.567 2379.31 714.898 2371.15 714.898 2362.97 731.228 2350.73 751.641 2322.14 796.55 2305.81 821.047 2277.23 874.12 2236.4 927.195 2215.99 968.02 2199.65 980.268 2166.98 1037.42 2142.49 1074.17 2122.08 1110.91 2097.57 1139.49 2064.91 1196.65 2052.66 1217.06 2015.91 1266.05 1999.57 1294.63 1979.16 1319.13 1966.91 1347.7 1946.49 1376.28 1934.24 1396.69 1905.66 1441.61 1893.41 1462.02 1877.08 1482.43 1860.76 1506.92 1848.5 1527.33 1811.75 1576.34 1795.42 1604.91 1783.17 1617.16 1762.76 1657.99 1750.51 1670.23 1734.18 1694.73 1717.84 1723.3 1705.59 1735.55 1685.17 1772.29 1668.84 1792.7 1644.34 1837.62 1623.93 1858.03 1599.42 1902.95 1583.1 1923.36 1579.01 1939.68 1570.85 1939.68 1566.77 1951.93 1550.43 1976.42 1534.1 2005.01 1521.85 2017.25 1497.35 2062.16 1493.27 2078.49 1485.1 2078.49 1472.86 2098.9 1468.77 2115.24 1460.61 2115.24 1456.52 2127.49 1452.43 2143.82 1440.19 2147.9 1436.1 2164.23 1427.94 2164.23 1427.94 2180.55 1415.69 2184.64 1411.6 2200.97 1399.36 2200.97 1395.27 2213.22 1391.19 2229.55 1383.02 2229.55 1383.02 2241.79 1374.86 2241.79 1374.86 2258.13 1697.42 2258.13 1697.42 2249.97 1705.59 2249.97 1726 2209.14 1742.34 2192.8 1754.59 2164.23 1766.83 2156.07 1770.92 2143.82 1775.01 2127.49 1783.17 2127.49 1787.26 2115.24 1811.75 2078.49 1828.09 2049.91 1832.17 2033.59 1840.33 2033.59 1856.67 2005.01 1868.92 1996.84 1881.17 1972.35 1901.59 1939.68 1909.75 1915.18 1930.17 1907.02 1942.42 1878.44 1954.67 1870.28 1966.91 1841.71 1987.32 1809.04 1999.57 1788.63 2028.15 1743.72 2036.33 1727.39 2048.58 1723.3 2068.98 1682.48 2089.41 1649.81 2109.82 1617.16 2134.32 1588.57 2154.73 1551.83 2183.32 1515.1 2199.65 1486.51 2215.99 1466.09 2232.32 1433.44 2264.98 1388.53 2273.15 1368.12 2305.81 1331.38 2322.14 1298.71 2338.48 1274.21 2350.73 1253.8 2383.4 1208.9 2399.72 1184.4 2420.14 1143.57 2436.47 1123.16 2452.81 1094.58 2481.39 1057.83 2509.96 1012.93 2522.22 992.517 2542.63 963.937 2554.88 943.524 2587.55 898.616 2603.89 874.12 2628.38 829.212 2644.72 804.715 2656.96 784.302 2673.3 759.806 2677.37 743.476 2685.55 743.476 2697.8 718.98 2710.04 710.815 2734.54 669.989 2738.63 649.576 2759.04 641.41 2783.54 600.584 2803.95 567.923 2828.45 531.18 2832.54 514.849 2840.7 514.849 2840.7 498.518 2848.87 498.518 2852.96 486.271 2857.03 469.94 2869.28 469.94 2889.7 437.279 2893.79 420.949 2901.95 420.949 2914.2 392.371 2926.45 384.206 2930.53 371.957 2934.62 355.627 2942.78 355.627 2942.78 339.296 2955.03 335.214 2959.12 318.883 2967.28 318.883 2971.36 306.635 2975.45 290.305 2987.7 290.305 2999.95 261.726 3012.19 253.561 3012.19 241.313 3020.36 241.313 3020.36 224.983 3028.53 224.983 3028.53 216.818ZM1391.43 216.818 1391.43 233.143 1399.59 233.143 1399.59 245.388 1407.77 249.469 1411.85 261.713 1420.01 261.713 1420.01 273.958 1436.35 282.12 1436.35 298.446 1444.52 298.446 1444.52 310.69 1452.7 327.017 1460.86 327.017 1460.86 339.26 1477.19 347.424 1477.19 363.749 1485.37 363.749 1485.37 375.994 1493.53 392.319 1501.7 396.401 1509.87 412.726 1522.12 412.726 1522.12 424.971 1538.46 457.622 1546.63 461.704 1571.13 506.599 1579.3 506.599 1579.3 522.925 1595.63 527.006 1595.63 543.332 1603.81 543.332 1603.81 555.576 1611.97 571.902 1620.14 571.902 1620.14 580.065 1640.56 604.554 1656.9 637.205 1665.07 637.205 1665.07 649.45 1673.23 665.775 1693.65 686.182 1701.83 686.182 1705.9 702.508 1718.16 722.915 1726.32 722.915 1726.32 735.16 1734.5 751.485 1750.83 771.893 1767.17 804.544 1775.34 804.544 1775.34 816.788 1783.5 833.114 1799.85 841.277 1799.85 849.44 1816.18 882.091 1832.52 898.417 1844.77 918.824 1877.43 963.72 1885.61 984.127 1901.94 1004.53 1918.28 1029.02 1930.54 1033.1 1946.87 1016.78 1967.29 980.045 1983.63 955.557 2008.14 914.743 2016.3 898.417 2040.81 869.847 2061.23 833.114 2081.65 808.626 2081.65 784.137 2073.48 767.811 2065.31 767.811 2065.31 751.485 2048.98 735.16 2032.63 702.508 2024.47 702.508 2024.47 690.264 2004.05 665.775 1987.72 637.205 1979.54 633.124 1963.21 600.472 1955.03 596.391 1938.7 563.74 1930.54 563.74 1930.54 551.495 1922.36 535.169 1910.12 531.088 1901.94 514.762 1893.78 514.762 1893.78 502.518 1885.61 486.192 1877.43 486.192 1877.43 469.866 1869.27 465.785 1861.1 449.459 1852.94 449.459 1852.94 437.215 1836.6 404.564 1828.43 404.564 1828.43 392.319 1820.26 375.994 1812.1 375.994 1812.1 363.749 1791.67 343.342 1783.5 327.017 1775.34 327.017 1775.34 310.69 1767.17 310.69 1767.17 298.446 1759.01 282.12 1750.83 282.12 1750.83 269.876 1734.5 261.713 1734.5 249.469 1726.32 233.143 1705.9 216.818ZM964 0 3435 0 3435 2475 964 2475Z" fill="#FFFFFF" fill-rule="evenodd"/></g></svg>