<svg width="718" height="720" xmlns="http://www.w3.org/2000/svg" xmlns:xlink="http://www.w3.org/1999/xlink" overflow="hidden"><defs><clipPath id="clip0"><rect x="281" y="0" width="718" height="720"/></clipPath></defs><g clip-path="url(#clip0)" transform="translate(-281 0)"><path d="M720.139 420.031 718.953 421.214 715.394 427.15 707.089 437.829 703.53 446.139 699.967 449.699 697.596 455.629 694.037 456.818 686.915 467.496 683.355 473.432 678.61 478.178 672.68 488.856 672.68 494.792 676.239 499.54 682.173 511.407 684.544 512.593 691.66 522.089 698.782 532.767 702.341 538.701 704.712 538.701 704.712 542.26 709.46 551.753 713.02 554.127 721.327 570.742 723.698 571.93 726.069 576.675 729.632 576.675 729.632 580.235 729.632 583.794 613.351 584.983 608.609 589.728 606.232 596.849 603.861 596.849 599.116 602.78 597.927 608.716 595.556 608.716 591.994 615.835 590.809 620.583 588.435 620.583 588.435 625.328 584.875 626.517 583.69 631.265 581.316 631.265 580.13 634.824 574.197 640.755 573.011 645.503 570.637 645.503 570.637 650.251 567.078 651.436 565.889 656.184 877.945 656.184 877.945 652.625 875.574 650.251 870.826 641.943 864.892 639.572 864.892 636.013 862.521 631.265 860.15 631.265 860.15 627.702 855.402 625.328 855.402 620.583 853.028 617.024 850.657 617.024 850.657 612.276 848.283 612.276 847.098 607.528 843.535 601.597 841.164 601.597 841.164 598.038 837.605 593.29 834.045 587.354 829.3 582.609 825.738 576.675 823.367 576.675 823.367 573.113 820.996 568.371 818.619 568.371 818.619 564.805 816.248 560.063 811.503 555.315 807.943 549.379 805.566 549.379 805.566 545.819 800.821 543.445 800.821 538.701 798.45 538.701 798.45 535.138 793.702 526.831 787.769 517.341 783.024 510.219 774.719 498.352 771.16 497.163 771.16 493.604 765.226 484.114 761.667 478.178 755.736 468.685 752.174 462.754 746.243 454.447 740.31 448.51 739.122 444.951 734.38 437.829 729.632 429.521 726.069 425.962ZM843.407 229.085 835.109 238.576 830.364 248.066 820.877 261.115 817.317 269.419 811.392 275.351 806.647 283.655 801.902 289.586 794.786 302.635 791.233 306.195 786.49 313.314 781.742 321.618 778.186 325.178 772.255 335.85 767.513 341.784 765.142 347.714 762.771 350.085 759.212 357.204 760.4 360.764 765.142 366.697 771.073 378.558 779.371 388.051 786.49 402.286 791.233 409.399 793.604 415.333 799.531 421.263 803.088 429.571 806.647 431.942 809.018 436.687 816.134 447.365 818.505 447.365 819.694 453.296 825.619 465.16 829.178 466.343 829.178 468.717 838.665 479.395 926.42 479.395 927.603 474.647 925.232 469.902 916.933 459.227 908.632 446.177 905.072 440.246 899.145 431.942 894.4 429.571 894.4 426.011 892.029 420.081 888.472 416.521 887.286 412.962 882.541 410.588 882.541 407.028 880.17 402.286 874.24 393.982 869.498 391.608 869.498 386.863 865.941 379.744 861.196 373.813 855.268 361.949 854.08 357.204 858.825 348.903 861.196 347.714 867.127 335.85 869.498 331.108 871.869 331.108 875.428 326.36 878.982 318.059 887.286 307.383 892.029 299.076 899.145 288.4 906.261 276.537 913.374 263.488 921.675 252.811 929.98 239.762 933.534 229.085ZM344.931 229.085 344.931 233.833 349.676 236.207 349.676 239.768 354.426 248.077 359.171 252.825 366.293 263.509 374.601 280.127 379.349 282.501 379.349 284.875 382.911 290.809 388.844 299.119 392.404 305.056 398.34 313.363 403.088 322.859 409.022 328.795 411.396 334.729 420.892 350.158 420.892 359.657 413.767 371.526 401.9 386.959 398.34 396.455 393.592 402.388 388.844 411.887 380.537 422.568 378.16 428.504 372.227 435.626 363.919 452.244 356.797 461.74 349.676 472.424 347.305 478.358 442.257 478.358 450.562 460.554 456.498 454.618 464.805 437.997 473.113 427.316 477.864 419.006 484.983 409.513 489.731 400.014 498.038 390.518 506.348 375.086 512.282 369.153 514.656 363.216 515.841 357.283 518.215 357.283 518.215 354.909 513.47 345.413 508.719 340.665 503.974 331.166 498.038 324.047 493.29 315.737 488.542 308.615 480.235 295.557 476.675 287.249 471.924 283.688 467.179 274.191 464.805 273.004 461.246 264.696 456.498 258.76 448.191 245.703 444.628 237.394 442.257 237.394 442.257 235.02 436.318 229.085ZM567.97 63.0009 567.97 67.746 570.341 67.746 570.341 71.3049 572.715 71.3049 572.715 76.0499 575.086 76.0499 575.086 79.6088 577.457 84.3541 583.39 90.2855 585.764 90.2855 585.764 93.8444 588.138 98.5894 590.509 98.5894 591.698 103.335 595.257 109.266 597.628 109.266 597.628 112.825 600.002 117.57 604.747 119.943 604.747 123.502 607.121 128.247 609.492 129.433 615.426 136.551 734.069 136.551 734.069 143.669 731.697 143.669 728.138 150.786 726.95 155.532 721.019 157.904 721.019 161.463 718.645 161.463 718.645 166.208 716.274 166.208 715.086 169.767 711.526 172.14 703.222 188.748 699.662 191.12 692.546 202.983 691.358 207.728 688.987 207.728 686.61 212.473 683.053 218.405 674.746 231.454 670.001 238.572 661.696 253.994 649.832 269.416 643.902 281.278 639.154 284.837 629.661 301.444 622.545 312.122 616.614 322.798 609.492 331.102 600.002 347.711 596.443 353.642 585.764 367.877 581.016 376.181 575.086 383.3 571.526 391.602 565.593 399.907 562.033 405.837 553.729 418.889 550.169 424.82 545.424 430.751 540.682 437.867 537.12 443.797 526.441 458.038 521.696 466.34 518.137 469.899 512.206 481.763 508.647 485.32 503.902 492.439 499.154 500.74 495.594 504.3 489.661 514.975 484.916 520.906 477.797 533.958 471.866 539.889 464.744 552.941 460.002 558.872 458.814 563.614 456.443 563.614 455.257 567.174 450.509 574.29 445.764 582.597 442.205 586.154 435.086 599.203 433.9 603.948 431.526 603.948 427.97 609.879 426.781 614.627 424.41 614.627 423.222 618.186 422.034 622.931 418.477 624.117 417.288 628.862 414.917 628.862 414.917 633.604 411.358 634.792 410.169 639.537 406.613 639.537 405.424 643.097 404.239 647.842 401.865 647.842 401.865 651.398 399.494 651.398 399.494 656.146 493.22 656.146 493.22 653.775 495.594 653.775 501.525 641.911 506.273 637.163 509.832 628.862 513.389 626.491 514.577 622.931 515.766 618.186 518.137 618.186 519.325 614.627 526.441 603.948 531.189 595.644 532.375 590.901 534.746 590.901 539.494 582.597 543.053 580.223 546.613 573.107 552.546 563.614 554.917 556.495 560.851 554.124 564.41 545.819 567.97 543.448 571.526 535.147 577.457 525.654 581.016 519.723 589.321 506.674 591.698 501.929 595.257 500.74 601.185 488.879 607.121 479.386 613.052 469.899 620.171 461.592 626.101 450.916 634.409 440.244 639.154 431.936 643.902 426.003 648.647 416.516 658.137 403.466 660.511 397.535 670.001 386.86 674.746 377.367 679.494 370.248 683.053 364.317 692.546 351.271 697.288 344.152 703.222 332.288 707.967 326.357 712.715 318.053 721.019 307.374 729.321 294.328 732.883 288.396 738.814 280.092 742.373 274.16 751.866 261.111 756.614 253.994 763.73 240.945 768.478 233.827 772.034 227.895 776.782 220.777 777.965 216.032 780.342 216.032 783.901 208.914 787.458 206.542 794.577 194.679 795.765 188.748 801.696 186.375 808.815 174.512 814.745 165.022 821.864 154.345 823.053 149.6 825.424 149.6 825.424 144.855 827.798 144.855 828.986 141.296 830.169 136.551 833.728 136.551 839.662 127.06 840.85 122.315 843.221 122.315 846.781 114.011 850.34 111.639 851.526 108.08 852.714 103.335 855.085 103.335 855.085 98.5894 858.645 97.4033 859.833 92.658 862.204 92.658 863.39 89.0991 864.578 84.3541 868.138 84.3541 871.697 76.0499 875.254 73.6774 875.254 70.1185 877.628 70.1185 877.628 65.3735 880.002 65.3735 880.002 63.0009ZM404.309 63.0009 404.309 67.7445 406.68 67.7445 406.68 71.3025 409.057 72.4884 410.242 76.0461 412.613 76.0461 412.613 79.6041 417.361 81.9758 417.361 86.7196 419.735 86.7196 419.735 90.2774 422.112 95.0215 424.483 95.0215 424.483 98.579 429.228 100.951 429.228 105.695 431.605 105.695 431.605 109.253 433.976 113.996 436.35 115.182 438.724 119.926 442.283 119.926 442.283 123.484 447.031 132.972 449.405 134.158 456.524 147.203 458.898 147.203 458.898 151.947 463.643 153.132 463.643 157.876 466.02 157.876 466.02 161.434 468.391 166.178 470.765 166.178 470.765 168.55 476.699 175.666 481.446 185.153 483.82 185.153 483.82 188.711 486.191 193.455 492.125 199.384 494.502 199.384 495.684 204.128 499.247 210.058 501.618 210.058 501.618 213.616 503.995 218.359 508.74 224.289 513.488 233.777 515.862 233.777 515.862 237.335 518.233 242.078 522.984 244.45 522.984 246.822 527.729 256.31 532.477 261.054 536.036 266.983 545.526 280.029 547.903 285.958 552.648 291.887 557.396 299.003 560.958 300.189 565.703 295.446 571.637 284.772 576.385 277.657 583.506 265.797 585.878 261.054 592.999 252.752 598.933 242.078 604.866 234.963 604.866 227.847 602.492 223.103 600.118 223.103 600.118 218.359 595.373 213.616 590.623 204.128 588.251 204.128 588.251 200.57 582.318 193.455 577.573 185.153 575.196 183.967 570.451 174.48 568.074 173.294 563.329 163.806 560.958 163.806 560.958 160.248 558.581 155.504 555.025 154.319 552.648 149.575 550.277 149.575 550.277 146.017 547.903 141.273 545.526 141.273 545.526 136.529 543.155 135.343 540.781 130.6 538.41 130.6 538.41 127.042 533.662 117.554 531.288 117.554 531.288 113.996 528.914 109.253 526.543 109.253 526.543 105.695 520.607 99.7651 518.233 95.0215 515.862 95.0215 515.862 90.2774 513.488 90.2774 513.488 86.7196 511.117 81.9758 508.74 81.9758 508.74 78.418 503.995 76.0461 503.995 72.4884 501.618 67.7445 495.684 63.0009ZM280.11 0 998.11 0 998.11 719.162 280.11 719.162Z" fill="#3A3F78" fill-rule="evenodd" transform="matrix(1 0 0 1.00116 0.889923 0)"/></g></svg>