<?xml version="1.0" encoding="UTF-8"?>
<svg xmlns="http://www.w3.org/2000/svg" xmlns:xlink="http://www.w3.org/1999/xlink" width="24px" height="px" viewBox="0 0 23 16" version="1.1">
<defs>
<clipPath id="clip1">
  <path d="M 0 7 L 9 7 L 9 16 L 0 16 Z M 0 7 "/>
</clipPath>
<clipPath id="clip2">
  <path d="M 10.082031 13.445312 L 2.527344 5.527344 L 0.00390625 8.085938 L 7.554688 16 Z M 10.082031 13.445312 "/>
</clipPath>
<clipPath id="clip3">
  <path d="M 10.082031 13.445312 L 2.527344 5.527344 L 0.00390625 8.085938 L 7.554688 16 Z M 10.082031 13.445312 "/>
</clipPath>
<clipPath id="clip4">
  <path d="M 10.082031 13.445312 L 2.527344 5.527344 L 0.00390625 8.085938 L 7.554688 16 Z M 10.082031 13.445312 "/>
</clipPath>
<clipPath id="clip5">
  <path d="M 10.082031 13.445312 L 2.527344 5.527344 L 0.00390625 8.085938 L 7.554688 16 Z M 10.082031 13.445312 "/>
</clipPath>
<clipPath id="clip6">
  <path d="M 0 0 L 9 0 L 9 9 L 0 9 Z M 0 0 "/>
</clipPath>
<clipPath id="clip7">
  <path d="M 2.554688 10.378906 L 10.238281 2.597656 L 7.757812 0 L 0.0742188 7.78125 Z M 2.554688 10.378906 "/>
</clipPath>
<clipPath id="clip8">
  <path d="M 2.554688 10.378906 L 10.238281 2.597656 L 7.757812 0 L 0.0742188 7.78125 Z M 2.554688 10.378906 "/>
</clipPath>
<clipPath id="clip9">
  <path d="M 2.554688 10.378906 L 10.238281 2.597656 L 7.757812 0 L 0.0742188 7.78125 Z M 2.554688 10.378906 "/>
</clipPath>
<clipPath id="clip10">
  <path d="M 2.554688 10.378906 L 10.238281 2.597656 L 7.757812 0 L 0.0742188 7.78125 Z M 2.554688 10.378906 "/>
</clipPath>
<clipPath id="clip11">
  <path d="M 1 5 L 23 5 L 23 11 L 1 11 Z M 1 5 "/>
</clipPath>
<clipPath id="clip12">
  <path d="M 2.351562 4.210938 L 22.996094 6.3125 L 22.570312 10.765625 L 1.925781 8.664062 Z M 2.351562 4.210938 "/>
</clipPath>
<clipPath id="clip13">
  <path d="M 2.351562 4.210938 L 22.996094 6.3125 L 22.570312 10.765625 L 1.925781 8.664062 Z M 2.351562 4.210938 "/>
</clipPath>
<clipPath id="clip14">
  <path d="M 2.351562 4.210938 L 22.996094 6.3125 L 22.570312 10.765625 L 1.925781 8.664062 Z M 2.351562 4.210938 "/>
</clipPath>
<clipPath id="clip15">
  <path d="M 2.351562 4.210938 L 22.996094 6.3125 L 22.570312 10.765625 L 1.925781 8.664062 Z M 2.351562 4.210938 "/>
</clipPath>
</defs>
<g id="surface1">
<g clip-path="url(#clip1)" clip-rule="nonzero">
<g clip-path="url(#clip2)" clip-rule="evenodd">
<g clip-path="url(#clip3)" clip-rule="evenodd">
<g clip-path="url(#clip4)" clip-rule="evenodd">
<g clip-path="url(#clip5)" clip-rule="nonzero">
<path style=" stroke:nonefill:none" d="M 0.214844 7.867188 L 4.023438 7.097656 L 8.726562 14.816406 L 7.554688 16 Z M 0.214844 7.867188 "/>
</g>
</g>
</g>
</g>
</g>
<g clip-path="url(#clip6)" clip-rule="nonzero">
<g clip-path="url(#clip7)" clip-rule="evenodd">
<g clip-path="url(#clip8)" clip-rule="evenodd">
<g clip-path="url(#clip9)" clip-rule="evenodd">
<g clip-path="url(#clip10)" clip-rule="nonzero">
<path style=" stroke:nonefill:none" d="M 7.96875 0.21875 L 8.714844 4.140625 L 1.222656 8.984375 L 0.0742188 7.78125 Z M 7.96875 0.21875 "/>
</g>
</g>
</g>
</g>
</g>
<g clip-path="url(#clip11)" clip-rule="nonzero">
<g clip-path="url(#clip12)" clip-rule="evenodd">
<g clip-path="url(#clip13)" clip-rule="evenodd">
<g clip-path="url(#clip14)" clip-rule="evenodd">
<g clip-path="url(#clip15)" clip-rule="nonzero">
<path style=" stroke:nonefill:none" d="M 22.605469 10.390625 L 18.902344 5.894531 L 2.121094 6.601562 L 1.925781 8.664062 Z M 22.605469 10.390625 "/>
</g>
</g>
</g>
</g>
</g>
</g>
</svg>
