<?xml version="1.0" encoding="UTF-8"?>
<svg xmlns="http://www.w3.org/2000/svg" xmlns:xlink="http://www.w3.org/1999/xlink" width="24px" height="px" viewBox="0 0 24 22" version="1.1">
<defs>
<clipPath id="clip1">
  <path d="M 12 0 L 23 0 L 23 4 L 12 4 Z M 12 0 "/>
</clipPath>
<clipPath id="clip2">
  <path d="M 12.507812 3.582031 L 22.980469 3.453125 L 22.941406 0.00390625 L 12.464844 0.132812 Z M 12.507812 3.582031 "/>
</clipPath>
<clipPath id="clip3">
  <path d="M 12.507812 3.582031 L 22.980469 3.453125 L 22.941406 0.00390625 L 12.464844 0.132812 Z M 12.507812 3.582031 "/>
</clipPath>
<clipPath id="clip4">
  <path d="M 12.507812 3.582031 L 22.980469 3.453125 L 22.941406 0.00390625 L 12.464844 0.132812 Z M 12.507812 3.582031 "/>
</clipPath>
<clipPath id="clip5">
  <path d="M 12.507812 3.582031 L 22.980469 3.453125 L 22.941406 0.00390625 L 12.464844 0.132812 Z M 12.507812 3.582031 "/>
</clipPath>
<clipPath id="clip6">
  <path d="M 19 0 L 24 0 L 24 11 L 19 11 Z M 19 0 "/>
</clipPath>
<clipPath id="clip7">
  <path d="M 19.660156 0.296875 L 19.785156 10.796875 L 23.222656 10.753906 L 23.097656 0.253906 Z M 19.660156 0.296875 "/>
</clipPath>
<clipPath id="clip8">
  <path d="M 19.660156 0.296875 L 19.785156 10.796875 L 23.222656 10.753906 L 23.097656 0.253906 Z M 19.660156 0.296875 "/>
</clipPath>
<clipPath id="clip9">
  <path d="M 19.660156 0.296875 L 19.785156 10.796875 L 23.222656 10.753906 L 23.097656 0.253906 Z M 19.660156 0.296875 "/>
</clipPath>
<clipPath id="clip10">
  <path d="M 19.660156 0.296875 L 19.785156 10.796875 L 23.222656 10.753906 L 23.097656 0.253906 Z M 19.660156 0.296875 "/>
</clipPath>
<clipPath id="clip11">
  <path d="M 6 0 L 23 0 L 23 15 L 6 15 Z M 6 0 "/>
</clipPath>
<clipPath id="clip12">
  <path d="M 23.996094 4.191406 L 8.671875 17.335938 L 5.925781 14.121094 L 21.25 0.976562 Z M 23.996094 4.191406 "/>
</clipPath>
<clipPath id="clip13">
  <path d="M 23.996094 4.191406 L 8.671875 17.335938 L 5.925781 14.121094 L 21.25 0.976562 Z M 23.996094 4.191406 "/>
</clipPath>
<clipPath id="clip14">
  <path d="M 23.996094 4.191406 L 8.671875 17.335938 L 5.925781 14.121094 L 21.25 0.976562 Z M 23.996094 4.191406 "/>
</clipPath>
<clipPath id="clip15">
  <path d="M 23.996094 4.191406 L 8.671875 17.335938 L 5.925781 14.121094 L 21.25 0.976562 Z M 23.996094 4.191406 "/>
</clipPath>
<clipPath id="clip16">
  <path d="M 0 15 L 20 15 L 20 22 L 0 22 Z M 0 15 "/>
</clipPath>
<clipPath id="clip17">
  <path d="M 19.804688 15.390625 L 0.453125 15.625 L 0.53125 22 L 19.882812 21.761719 Z M 19.804688 15.390625 "/>
</clipPath>
<clipPath id="clip18">
  <path d="M 19.804688 15.390625 L 0.453125 15.625 L 0.53125 22 L 19.882812 21.761719 Z M 19.804688 15.390625 "/>
</clipPath>
<clipPath id="clip19">
  <path d="M 19.804688 15.390625 L 0.453125 15.625 L 0.53125 22 L 19.882812 21.761719 Z M 19.804688 15.390625 "/>
</clipPath>
<clipPath id="clip20">
  <path d="M 19.804688 15.390625 L 0.453125 15.625 L 0.53125 22 L 19.882812 21.761719 Z M 19.804688 15.390625 "/>
</clipPath>
<clipPath id="clip21">
  <path d="M 0 2 L 7 2 L 7 22 L 0 22 Z M 0 2 "/>
</clipPath>
<clipPath id="clip22">
  <path d="M 6.589844 21.460938 L 6.355469 2.058594 L 0.00390625 2.136719 L 0.238281 21.539062 Z M 6.589844 21.460938 "/>
</clipPath>
<clipPath id="clip23">
  <path d="M 6.589844 21.460938 L 6.355469 2.058594 L 0.00390625 2.136719 L 0.238281 21.539062 Z M 6.589844 21.460938 "/>
</clipPath>
<clipPath id="clip24">
  <path d="M 6.589844 21.460938 L 6.355469 2.058594 L 0.00390625 2.136719 L 0.238281 21.539062 Z M 6.589844 21.460938 "/>
</clipPath>
<clipPath id="clip25">
  <path d="M 6.589844 21.460938 L 6.355469 2.058594 L 0.00390625 2.136719 L 0.238281 21.539062 Z M 6.589844 21.460938 "/>
</clipPath>
<clipPath id="clip26">
  <path d="M 15 11 L 20 11 L 20 22 L 15 22 Z M 15 11 "/>
</clipPath>
<clipPath id="clip27">
  <path d="M 22.019531 20.175781 L 19.289062 10.878906 L 15.238281 12.074219 L 17.96875 21.371094 Z M 22.019531 20.175781 "/>
</clipPath>
<clipPath id="clip28">
  <path d="M 22.019531 20.175781 L 19.289062 10.878906 L 15.238281 12.074219 L 17.96875 21.371094 Z M 22.019531 20.175781 "/>
</clipPath>
<clipPath id="clip29">
  <path d="M 22.019531 20.175781 L 19.289062 10.878906 L 15.238281 12.074219 L 17.96875 21.371094 Z M 22.019531 20.175781 "/>
</clipPath>
<clipPath id="clip30">
  <path d="M 22.019531 20.175781 L 19.289062 10.878906 L 15.238281 12.074219 L 17.96875 21.371094 Z M 22.019531 20.175781 "/>
</clipPath>
<clipPath id="clip31">
  <path d="M 0.570312 1.675781 L 10.367188 1.675781 L 10.367188 7.589844 L 0.570312 7.589844 Z M 0.570312 1.675781 "/>
</clipPath>
</defs>
<g id="surface1">
<g clip-path="url(#clip1)" clip-rule="nonzero">
<g clip-path="url(#clip2)" clip-rule="evenodd">
<g clip-path="url(#clip3)" clip-rule="evenodd">
<g clip-path="url(#clip4)" clip-rule="evenodd">
<g clip-path="url(#clip5)" clip-rule="nonzero">
<path style=" stroke:nonefill:none" d="M 22.945312 0.292969 L 20.90625 3.480469 L 12.484375 1.730469 L 12.464844 0.132812 Z M 22.945312 0.292969 "/>
</g>
</g>
</g>
</g>
</g>
<g clip-path="url(#clip6)" clip-rule="nonzero">
<g clip-path="url(#clip7)" clip-rule="evenodd">
<g clip-path="url(#clip8)" clip-rule="evenodd">
<g clip-path="url(#clip9)" clip-rule="evenodd">
<g clip-path="url(#clip10)" clip-rule="nonzero">
<path style=" stroke:nonefill:none" d="M 22.933594 10.757812 L 19.761719 8.714844 L 21.503906 0.273438 L 23.097656 0.253906 Z M 22.933594 10.757812 "/>
</g>
</g>
</g>
</g>
</g>
<g clip-path="url(#clip11)" clip-rule="nonzero">
<g clip-path="url(#clip12)" clip-rule="evenodd">
<g clip-path="url(#clip13)" clip-rule="evenodd">
<g clip-path="url(#clip14)" clip-rule="evenodd">
<g clip-path="url(#clip15)" clip-rule="nonzero">
<path style=" stroke:nonefill:none" d="M 6.15625 14.390625 L 11.710938 14.730469 L 22.523438 2.464844 L 21.25 0.976562 Z M 6.15625 14.390625 "/>
</g>
</g>
</g>
</g>
</g>
<g clip-path="url(#clip16)" clip-rule="nonzero">
<g clip-path="url(#clip17)" clip-rule="evenodd">
<g clip-path="url(#clip18)" clip-rule="evenodd">
<g clip-path="url(#clip19)" clip-rule="evenodd">
<g clip-path="url(#clip20)" clip-rule="nonzero">
<path style=" stroke:nonefill:none" d="M 0.523438 21.460938 L 4.289062 15.578125 L 19.847656 18.8125 L 19.882812 21.761719 Z M 0.523438 21.460938 "/>
</g>
</g>
</g>
</g>
</g>
<g clip-path="url(#clip21)" clip-rule="nonzero">
<g clip-path="url(#clip22)" clip-rule="evenodd">
<g clip-path="url(#clip23)" clip-rule="evenodd">
<g clip-path="url(#clip24)" clip-rule="evenodd">
<g clip-path="url(#clip25)" clip-rule="nonzero">
<path style=" stroke:nonefill:none" d="M 0.539062 2.132812 L 6.402344 5.90625 L 3.183594 21.503906 L 0.238281 21.539062 Z M 0.539062 2.132812 "/>
</g>
</g>
</g>
</g>
</g>
<g clip-path="url(#clip26)" clip-rule="nonzero">
<g clip-path="url(#clip27)" clip-rule="evenodd">
<g clip-path="url(#clip28)" clip-rule="evenodd">
<g clip-path="url(#clip29)" clip-rule="evenodd">
<g clip-path="url(#clip30)" clip-rule="nonzero">
<path style=" stroke:nonefill:none" d="M 15.578125 11.972656 L 19.832031 12.722656 L 19.847656 20.816406 L 17.96875 21.371094 Z M 15.578125 11.972656 "/>
</g>
</g>
</g>
</g>
</g>
<g clip-path="url(#clip31)" clip-rule="nonzero">
<path style=" stroke:nonefill:none" d="M 0.570312 2.175781 L 2.511719 7.589844 L 10.359375 4.414062 L 10.359375 1.675781 Z M 0.570312 2.175781 "/>
</g>
</g>
</svg>
