<?xml version="1.0" encoding="UTF-8"?>
<svg xmlns="http://www.w3.org/2000/svg" xmlns:xlink="http://www.w3.org/1999/xlink" width="24px" height="px" viewBox="0 0 23 22" version="1.1">
<g id="surface1">
<path style=" stroke:nonefill:none" d="M 11.484375 0.0273438 C 13.933594 0.0742188 16.035156 0.855469 17.75 2.105469 L 17.925781 2.261719 L 18.292969 2.449219 C 21.414062 4.34375 23.261719 7.195312 22.96875 11.121094 L 22.941406 12.664062 L 22.90625 13.171875 C 22.804688 13.800781 22.65625 14.398438 22.464844 14.96875 L 21.921875 16.210938 L 21.726562 16.683594 L 20.820312 18 L 19.816406 19.109375 C 18.726562 20.078125 17.421875 20.847656 16 21.378906 L 14.480469 21.800781 L 14.378906 21.445312 C 14.335938 21.230469 14.355469 20.808594 14.378906 20.261719 L 14.394531 19.855469 L 14.386719 19.359375 C 14.382812 19.03125 14.386719 18.683594 14.398438 18.320312 C 14.253906 17.148438 13.90625 16.550781 13.613281 16.210938 C 16.140625 15.289062 18.972656 14.914062 18.882812 10.597656 C 18.722656 9.167969 18.554688 8.601562 17.699219 7.546875 C 17.753906 7.332031 18.269531 6.0625 17.585938 4.535156 C 17.585938 4.535156 16.613281 4.234375 14.414062 5.703125 C 13.566406 5.707031 12.6875 5.25 11.53125 5.324219 C 10.539062 5.289062 9.691406 5.691406 8.648438 5.703125 C 8.089844 5.332031 7.617188 5.058594 7.21875 4.859375 L 6.644531 4.625 L 6.242188 4.484375 C 5.714844 4.378906 5.460938 4.484375 5.480469 4.535156 C 4.792969 6.085938 5.480469 7.367188 5.363281 7.546875 C 4.738281 8.621094 4.296875 9.433594 4.179688 10.597656 C 4.101562 14.484375 7.320312 15.265625 9.433594 16.210938 C 9.058594 16.46875 8.808594 17.015625 8.707031 17.738281 C 8.382812 17.886719 7.824219 18.109375 7.203125 18.070312 L 6.300781 17.777344 L 6.117188 17.71875 C 5.824219 17.535156 5.5625 17.242188 5.347656 16.796875 C 5.347656 16.796875 5.191406 16.523438 4.894531 16.238281 C 4.597656 15.957031 4.152344 15.664062 3.570312 15.628906 C 3.570312 15.628906 2.445312 15.628906 3.492188 16.324219 C 3.492188 16.324219 4.257812 16.664062 4.773438 17.980469 C 4.773438 17.980469 5.441406 20.015625 8.648438 19.335938 C 8.691406 19.769531 8.675781 20.210938 8.660156 20.585938 L 8.648438 20.964844 L 8.667969 21.117188 C 8.683594 21.265625 8.6875 21.378906 8.667969 21.445312 C 8.679688 21.65625 8.558594 21.929688 8.253906 22 L 8.046875 21.996094 L 6.9375 21.71875 L 6.757812 21.621094 L 6.519531 21.5625 C 3.789062 20.546875 1.804688 18.488281 0.773438 15.984375 L 0.296875 14.511719 L 0.164062 13.730469 L 0.148438 13.667969 L 0.0117188 12.804688 L 0 11.199219 L 0.289062 8.929688 C 0.796875 6.722656 1.941406 4.726562 3.511719 3.171875 L 5.097656 1.867188 L 7.003906 0.828125 C 8.453125 0.210938 9.988281 -0.0976562 11.484375 0.0273438 Z M 11.484375 0.0273438 "/>
</g>
</svg>
