<?xml version="1.0" encoding="UTF-8"?>
<svg xmlns="http://www.w3.org/2000/svg" xmlns:xlink="http://www.w3.org/1999/xlink" width="24px" height="px" viewBox="0 0 23 17" version="1.1">
<defs>
<clipPath id="clip1">
  <path d="M 0 0 L 22.867188 0 L 22.867188 4.902344 L 0 4.902344 Z M 0 0 "/>
</clipPath>
<clipPath id="clip2">
  <path d="M 0 6.046875 L 22.867188 6.046875 L 22.867188 10.949219 L 0 10.949219 Z M 0 6.046875 "/>
</clipPath>
<clipPath id="clip3">
  <path d="M 0.136719 12.101562 L 23 12.101562 L 23 17 L 0.136719 17 Z M 0.136719 12.101562 "/>
</clipPath>
</defs>
<g id="surface1">
<g clip-path="url(#clip1)" clip-rule="nonzero">
<path style=" stroke:nonefill:none" d="M 22.863281 0.414062 L 18.328125 4.898438 L 0 2.269531 L 0 0 Z M 22.863281 0.414062 "/>
</g>
<g clip-path="url(#clip2)" clip-rule="nonzero">
<path style=" stroke:nonefill:none" d="M 22.863281 6.464844 L 18.328125 10.949219 L 0 8.320312 L 0 6.050781 Z M 22.863281 6.464844 "/>
</g>
<g clip-path="url(#clip3)" clip-rule="nonzero">
<path style=" stroke:nonefill:none" d="M 23 12.515625 L 18.464844 17 L 0.136719 14.371094 L 0.136719 12.101562 Z M 23 12.515625 "/>
</g>
</g>
</svg>
