<?xml version="1.0" encoding="UTF-8"?>
<svg xmlns="http://www.w3.org/2000/svg" xmlns:xlink="http://www.w3.org/1999/xlink" width="24px" height="px" viewBox="0 0 24 24" version="1.1">
<g id="surface1">
<path style=" stroke:nonefill:none" d="M 17.484375 1.972656 C 23.335938 6.359375 23.746094 13.761719 21.789062 18.679688 C 18.757812 23.878906 9.199219 25.414062 4.710938 21.289062 C 9.980469 21.199219 13.945312 17.703125 16.445312 15.15625 C 17.878906 11.992188 18.367188 7.429688 17.484375 1.972656 Z M 17.484375 1.972656 "/>
<path style="fill:none" d="M 3524.822266 989.660645 C 3892.570638 1238.962402 3932.701009 1553.200684 3774.673503 1960.756836 C 3545.907715 2267.04834 3057.541504 2302.01416 2783.430664 2112.426758 C 3088.149414 2048.625488 3326.664388 1999.128418 3464.513346 1755.957031 C 3582.410482 1554.335938 3617.099447 1194.6875 3524.822266 989.660645 Z M 3524.822266 989.660645 " transform="matrix(0.017229,0,0,0.0172043,-43.244795,-15.053763)"/>
<path style=" stroke:nonefill:none" d="M 0.59375 5.726562 C 2.136719 5.59375 2.863281 6.046875 4.214844 5.726562 C 4.277344 4.550781 5.339844 3.394531 5.332031 2.539062 C 6.039062 3.523438 5.890625 4.9375 6.449219 5.726562 C 8.070312 5.589844 8.960938 5.980469 10.070312 5.726562 C 9.597656 6.515625 8.0625 6.957031 7.140625 7.695312 C 7.8125 9.1875 7.824219 10.039062 8.261719 10.882812 C 6.945312 10.070312 6.648438 9.402344 5.332031 8.910156 C 4.480469 9.558594 3.644531 9.949219 2.402344 10.882812 C 2.402344 9.890625 3.585938 8.503906 3.523438 7.695312 C 2.640625 7.589844 1.417969 5.96875 0.59375 5.726562 Z M 0.59375 5.726562 "/>
<path style="fill:none" d="M 2544.46224 1207.856445 C 2643.087728 1199.001465 2705.210449 1214.440918 2754.636556 1207.856445 C 2764.385742 1168.803711 2800.435059 1087.746582 2819.47998 1022.583008 C 2848.500814 1095.693359 2852.355143 1128.615723 2884.323405 1207.856445 C 2934.429688 1206.721191 3025.119792 1216.484375 3094.497721 1207.856445 C 3038.496582 1272.338867 2965.491048 1284.599609 2924.453776 1322.290039 C 2945.765951 1362.478027 2946.899577 1451.936035 2989.523926 1507.563477 C 2928.308105 1495.075684 2877.068197 1412.202148 2819.47998 1392.902832 C 2746.247721 1451.481934 2695.687988 1448.984375 2649.436035 1507.563477 C 2673.015462 1435.588379 2700.222493 1405.390625 2714.506185 1322.290039 C 2667.347331 1307.98584 2615.880697 1249.86084 2544.46224 1207.856445 Z M 2544.46224 1207.856445 " transform="matrix(0.017229,0,0,0.0172043,-43.244795,-15.053763)"/>
</g>
</svg>
