<?xml version="1.0" encoding="UTF-8"?>
<svg xmlns="http://www.w3.org/2000/svg" xmlns:xlink="http://www.w3.org/1999/xlink" width="24px" height="px" viewBox="0 0 24 24" version="1.1">
<g id="surface1">
<path style="fill-rule:evenodd;fill:none" d="M 0.0983073 250.979329 C -10.854818 92.28776 140.207031 -11.056966 257.953125 -0.0335286 C 408.786784 17.879557 500.062826 119.846354 516.036133 250.979329 C 509.875 384.408854 423.16276 493.494954 257.953125 501.992188 C 98.676432 484.308757 4.662109 393.135742 0.0983073 250.979329 Z M 0.0983073 250.979329 " transform="matrix(-0.0171184,0,0,0.0170092,16.228245,7.399008)"/>
<path style=" stroke:nonefill:none" d="M 13.433594 5.539062 L 15.941406 6.722656 L 18.980469 2.515625 L 18.203125 1.535156 Z M 13.433594 5.539062 "/>
<path style=" stroke:nonefill:none" d="M 16.5 7.109375 L 18.09375 9.367188 L 22.824219 7.195312 L 22.636719 5.960938 Z M 16.5 7.109375 "/>
<path style=" stroke:nonefill:none" d="M 18.199219 9.890625 L 18.308594 12.648438 L 23.46875 13.359375 L 23.984375 12.222656 Z M 18.199219 9.890625 "/>
<path style=" stroke:nonefill:none" d="M 18.226562 13.316406 L 16.957031 15.769531 L 21.089844 18.921875 L 22.105469 18.179688 Z M 18.226562 13.316406 "/>
<path style=" stroke:nonefill:none" d="M 5.882812 13.425781 L 5.625 10.757812 L 0.460938 10.203125 L 0.0117188 11.320312 Z M 5.882812 13.425781 "/>
<path style=" stroke:nonefill:none" d="M 5.628906 10.074219 L 6.726562 7.628906 L 2.511719 4.613281 L 1.5625 5.363281 Z M 5.628906 10.074219 "/>
<path style=" stroke:nonefill:none" d="M 6.984375 7.207031 L 9.332031 5.773438 L 7.386719 1.160156 L 6.136719 1.285156 Z M 6.984375 7.207031 "/>
<path style=" stroke:nonefill:none" d="M 9.949219 5.570312 L 12.703125 5.476562 L 13.304688 0.507812 L 12.152344 0.0078125 Z M 9.949219 5.570312 "/>
<path style=" stroke:nonefill:none" d="M 16.214844 16.453125 L 13.957031 17.914062 L 15.855469 22.71875 L 17.0625 22.597656 Z M 16.214844 16.453125 "/>
<path style=" stroke:nonefill:none" d="M 13.34375 18.230469 L 10.65625 18.394531 L 9.921875 23.503906 L 11.027344 23.992188 Z M 13.34375 18.230469 "/>
<path style=" stroke:nonefill:none" d="M 10.160156 18.367188 L 7.796875 16.960938 L 4.578125 20.808594 L 5.273438 21.851562 Z M 10.160156 18.367188 "/>
<path style=" stroke:nonefill:none" d="M 7.328125 16.511719 L 5.96875 14.128906 L 1.257812 15.902344 L 1.34375 17.148438 Z M 7.328125 16.511719 "/>
</g>
</svg>
